<?xml version="1.0" encoding="UTF-8"?>
<svg version="1.1" xmlns="http://www.w3.org/2000/svg" width="1280" height="720">
<path d="M0 0 C422.4 0 844.8 0 1280 0 C1280 237.6 1280 475.2 1280 720 C857.6 720 435.2 720 0 720 C0 482.4 0 244.8 0 0 Z " fill="#404040" transform="translate(0,0)"/>
<path d="M0 0 C60.39 0 120.78 0 183 0 C183 9.24 183 18.48 183 28 C156.93 28 130.86 28 104 28 C103.67 30.31 103.34 32.62 103 35 C102.34 37.31 101.68 39.62 101 42 C125.42 42 149.84 42 175 42 C175 87.54 175 133.08 175 180 C165.1 180 155.2 180 145 180 C145 176.7 145 173.4 145 170 C109.03 170 73.06 170 36 170 C36 173.3 36 176.6 36 180 C26.76 180 17.52 180 8 180 C8 134.46 8 88.92 8 42 C28.46 42 48.92 42 70 42 C70.33 37.38 70.66 32.76 71 28 C47.57 28 24.14 28 0 28 C0 18.76 0 9.52 0 0 Z " fill="#DFDFDF" transform="translate(745,270)"/>
<path d="M0 0 C53.46 0 106.92 0 162 0 C162 9.24 162 18.48 162 28 C138.24 28 114.48 28 90 28 C90 34.6 90 41.2 90 48 C89.67 50.64 89.34 53.28 89 56 C116.72 56 144.44 56 173 56 C173 65.57 173 75.14 173 85 C152.21 85 131.42 85 110 85 C110.2165625 98.5196875 110.2165625 98.5196875 110.4375 112.3125 C110.50215454 116.57861206 110.50215454 116.57861206 110.56811523 120.9309082 C110.60623267 123.17920561 110.64470133 125.42749711 110.68359375 127.67578125 C110.7083075 129.43408264 110.7083075 129.43408264 110.73352051 131.22790527 C110.75370239 132.34419312 110.77388428 133.46048096 110.79467773 134.6105957 C110.81799416 136.06620659 110.81799416 136.06620659 110.84178162 137.55122375 C110.90465129 140.13795675 110.90465129 140.13795675 112 143 C116.07487494 143.12366555 120.14902301 143.21436476 124.2253418 143.2746582 C125.61160304 143.29979219 126.99773187 143.33390592 128.38354492 143.37719727 C130.37621037 143.43788396 132.36984533 143.46354879 134.36328125 143.48828125 C135.56251221 143.51446533 136.76174316 143.54064941 137.99731445 143.56762695 C141.14279054 143.30019388 141.14279054 143.30019388 142.85546875 140.80078125 C143.99376507 138.01525749 144.58324044 135.67932783 144.94921875 132.69921875 C145.07490234 131.72275391 145.20058594 130.74628906 145.33007812 129.74023438 C145.50700195 128.22913086 145.50700195 128.22913086 145.6875 126.6875 C145.88182617 125.14739258 145.88182617 125.14739258 146.08007812 123.57617188 C146.39708272 121.051876 146.70335188 118.52675522 147 116 C148.11117187 116.53109375 149.22234375 117.0621875 150.3671875 117.609375 C158.155624 121.31406909 165.91332155 124.9799137 174 128 C173.80840722 141.09797918 172.88534351 156.73026731 163.03125 166.51953125 C157.2795184 170.7116587 149.90815253 173.07931287 142.80493164 173.17700195 C141.57698631 173.19625481 141.57698631 173.19625481 140.32423401 173.21589661 C139.44508835 173.22328354 138.56594269 173.23067047 137.66015625 173.23828125 C136.74221786 173.246353 135.82427948 173.25442474 134.87852478 173.26274109 C132.9326261 173.27656416 130.98670334 173.28729425 129.04077148 173.29516602 C127.07129703 173.30662865 125.10185221 173.32698856 123.13256836 173.35668945 C97.19245582 173.74757085 97.19245582 173.74757085 87.4375 166.8125 C80.04239321 158.27968447 78.73405658 147.05652977 78.5859375 136.15234375 C78.56657135 135.25504044 78.5472052 134.35773712 78.5272522 133.4332428 C78.46805294 130.60142154 78.42131251 127.76955829 78.375 124.9375 C78.33676517 123.00323867 78.29771034 121.06899337 78.2578125 119.13476562 C78.16240143 114.42330911 78.07815361 109.71177309 78 105 C77.61908203 105.9185376 77.23816406 106.8370752 76.84570312 107.78344727 C74.0846876 114.37747798 71.33993658 120.88445118 67.5 126.9375 C66.87931641 127.92182007 66.87931641 127.92182007 66.24609375 128.92602539 C61.09359139 136.78152599 54.67007148 143.4281357 48 150 C47.13375 150.86496094 46.2675 151.72992188 45.375 152.62109375 C36.55803138 160.98851298 26.22157447 167.03846815 15.4375 172.5 C14.77089355 172.83845947 14.10428711 173.17691895 13.41748047 173.52563477 C9.97258965 175.21656402 6.81077338 176.47336721 3 177 C2.18208984 175.76636719 2.18208984 175.76636719 1.34765625 174.5078125 C-3.13442097 167.84331539 -7.77302199 161.74817703 -13.34765625 155.92578125 C-15 154 -15 154 -15 152 C-13.85144531 151.5153125 -12.70289063 151.030625 -11.51953125 150.53125 C8.49066117 141.95298255 26.23837241 131.03050332 39 113 C39.47050781 112.39285156 39.94101562 111.78570312 40.42578125 111.16015625 C46.43191239 102.98469473 48.84492702 94.86829832 53 85 C31.55 85 10.1 85 -12 85 C-12 75.43 -12 65.86 -12 56 C11.43 56 34.86 56 59 56 C59 52.37 59 48.74 59 45 C59.33 39.39 59.66 33.78 60 28 C40.2 28 20.4 28 0 28 C0 18.76 0 9.52 0 0 Z " fill="#DFDFDF" transform="translate(357,272)"/>
<path d="M0 0 C6.81246492 0.44671901 13.38367272 1.57190108 20.0625 2.9375 C21.34894409 3.19225098 21.34894409 3.19225098 22.66137695 3.45214844 C23.46534912 3.62133789 24.26932129 3.79052734 25.09765625 3.96484375 C25.82476807 4.1155835 26.55187988 4.26632324 27.30102539 4.42163086 C29 5 29 5 30 7 C29.67 7.66 29.34 8.32 29 9 C41.21 9.33 53.42 9.66 66 10 C66 16.93 66 23.86 66 31 C63.62482178 30.95903198 63.62482178 30.95903198 61.20166016 30.91723633 C55.29342912 30.83001437 49.38683544 30.8158134 43.47802734 30.82299805 C40.9271159 30.81604777 38.37617683 30.78962925 35.82568359 30.74291992 C20.16669166 29.65439919 20.16669166 29.65439919 6.6149292 35.87045288 C4.86363907 38.09468457 3.46240512 40.57603734 2 43 C6.29 43.33 10.58 43.66 15 44 C15 40.7 15 37.4 15 34 C23.58 34 32.16 34 41 34 C41 37.3 41 40.6 41 44 C49.25 44 57.5 44 66 44 C66 51.26 66 58.52 66 66 C57.75 66 49.5 66 41 66 C41 67.65 41 69.3 41 71 C48.26 70.67 55.52 70.34 63 70 C63.495 76.435 63.495 76.435 64 83 C71.6797793 66.83204359 71.34317228 50.06432537 71.625 32.5 C71.66329325 30.5012872 71.70235099 28.50258889 71.7421875 26.50390625 C71.83691466 21.66939219 71.92138014 16.83480171 72 12 C74.15881049 11.67617843 76.31762233 11.35236583 78.47644043 11.02859497 C80.31606389 10.75261051 82.15566322 10.47646515 83.99523926 10.20016479 C87.88693067 9.61581091 91.77873692 9.03265984 95.671875 8.45800781 C108.38366001 6.57976009 120.79592741 4.28736716 133.2109375 0.953125 C137 0 137 0 140 0 C141.84362943 3.26513191 143.67309479 6.53798562 145.5 9.8125 C146.02464844 10.74126953 146.54929687 11.67003906 147.08984375 12.62695312 C147.58613281 13.51962891 148.08242188 14.41230469 148.59375 15.33203125 C149.28500977 16.56530151 149.28500977 16.56530151 149.99023438 17.82348633 C151 20 151 20 151 23 C133.52639351 27.20305309 115.97063387 30.12412037 98 31 C98 34.63 98 38.26 98 42 C116.15 42 134.3 42 153 42 C153 49.59 153 57.18 153 65 C147.06 65 141.12 65 135 65 C135 78.53 135 92.06 135 106 C126.09 106 117.18 106 108 106 C108 92.47 108 78.94 108 65 C104.04 65 100.08 65 96 65 C95.9071875 66.9490625 95.9071875 66.9490625 95.8125 68.9375 C94.50746741 81.55877411 90.20600608 94.52146766 83 105 C81.68992737 106.03028515 80.35938163 107.03570785 79 108 C76.05870096 106.0682203 73.12265583 104.12859848 70.1875 102.1875 C69.35412109 101.64029297 68.52074219 101.09308594 67.66210938 100.52929688 C66.45844727 99.73168945 66.45844727 99.73168945 65.23046875 98.91796875 C64.49207764 98.43094482 63.75368652 97.9439209 62.99291992 97.44213867 C61.12584087 96.09106235 59.57345785 94.67791978 58 93 C58.99 91.515 58.99 91.515 60 90 C59.07380859 90.2165625 59.07380859 90.2165625 58.12890625 90.4375 C52.27859545 91.7197599 46.98550963 92.19308096 41 92 C41 96.29 41 100.58 41 105 C32.42 105 23.84 105 15 105 C15 101.7 15 98.4 15 95 C13.88028809 95.12117188 12.76057617 95.24234375 11.60693359 95.3671875 C7.43637601 95.81766052 3.26537854 96.26394165 -0.90576172 96.70898438 C-2.70796705 96.90185821 -4.51005256 97.09585523 -6.31201172 97.29101562 C-8.90821833 97.57199657 -11.50483485 97.84888099 -14.1015625 98.125 C-14.9017984 98.21249512 -15.7020343 98.29999023 -16.52651978 98.39013672 C-20.70726078 98.83047702 -24.78835216 99.09424666 -29 99 C-29.71272971 93.3617989 -30.06020524 87.82280453 -30.03125 82.13671875 C-30.02673828 80.98260498 -30.02222656 79.82849121 -30.01757812 78.6394043 C-30.01177734 77.76840088 -30.00597656 76.89739746 -30 76 C-24.37677152 75.57083886 -18.75339852 75.14364258 -13.12988281 74.71826172 C-11.21708142 74.57329356 -9.30432054 74.42778976 -7.39160156 74.28173828 C-4.64138106 74.07183049 -1.89102032 73.86385307 0.859375 73.65625 C1.71368103 73.59062866 2.56798706 73.52500732 3.44818115 73.45739746 C4.24870911 73.39733521 5.04923706 73.33727295 5.87402344 73.27539062 C6.57573669 73.22209595 7.27744995 73.16880127 8.00042725 73.1138916 C9.99740845 73.00014761 11.99978211 73 14 73 C14 70.69 14 68.38 14 66 C9.72869848 66.11134261 5.45816539 66.24161118 1.1875 66.375 C-0.00810547 66.4059375 -1.20371094 66.436875 -2.43554688 66.46875 C-9.79677224 66.70944402 -16.80056948 67.43166124 -24 69 C-25.33834986 65.21008507 -26.66982663 61.41779164 -28 57.625 C-28.3815625 56.54476562 -28.763125 55.46453125 -29.15625 54.3515625 C-29.5171875 53.3203125 -29.878125 52.2890625 -30.25 51.2265625 C-30.58515625 50.27346191 -30.9203125 49.32036133 -31.265625 48.33837891 C-32 46 -32 46 -32 44 C-30.42578125 42.703125 -30.42578125 42.703125 -28.3125 41.25 C-24.52130737 38.51603161 -21.82529901 35.70820495 -19 32 C-22.63 31.67 -26.26 31.34 -30 31 C-30 24.07 -30 17.14 -30 10 C-21.42 9.67 -12.84 9.34 -4 9 C-2.68 6.03 -1.36 3.06 0 0 Z " fill="#DEDEDE" transform="translate(176,261)"/>
<path d="M0 0 C45.87 0 91.74 0 139 0 C139 26.07 139 52.14 139 79 C129.76 79 120.52 79 111 79 C111 77.02 111 75.04 111 73 C83.61 73 56.22 73 28 73 C28 74.98 28 76.96 28 79 C18.76 79 9.52 79 0 79 C0 52.93 0 26.86 0 0 Z " fill="#E0E0E0" transform="translate(167,371)"/>
<path d="M0 0 C9.57 0 19.14 0 29 0 C29 13.53 29 27.06 29 41 C34.28 41 39.56 41 45 41 C45 50.24 45 59.48 45 69 C39.72 69 34.44 69 29 69 C29.00999275 70.75194168 29.00999275 70.75194168 29.02018738 72.53927612 C29.08113521 83.57324005 29.1260382 94.60716958 29.15543652 105.64126396 C29.17105882 111.31332315 29.19223427 116.98524589 29.22631836 122.65722656 C29.25903437 128.13614357 29.27687883 133.61492973 29.28463173 139.09393692 C29.2901533 141.1790078 29.30093537 143.26407193 29.31719017 145.34908676 C29.33912715 148.28089341 29.34196015 151.2121668 29.34057617 154.14404297 C29.351362 154.99641037 29.36214783 155.84877777 29.3732605 156.72697449 C29.33073338 165.11167129 27.72933605 173.2943247 21.796875 179.53515625 C10.73504005 188.55295649 -5.59179257 188.18651293 -19 188 C-19.30292969 186.98421875 -19.60585938 185.9684375 -19.91796875 184.921875 C-20.34082371 183.53115202 -20.7640196 182.14053266 -21.1875 180.75 C-21.38408203 180.08742188 -21.58066406 179.42484375 -21.78320312 178.7421875 C-23.75431303 172.31333674 -26.34915534 166.17467914 -29 160 C-28.18732666 159.97494385 -27.37465332 159.9498877 -26.53735352 159.92407227 C-22.87889248 159.80850882 -19.22071472 159.68560416 -15.5625 159.5625 C-14.28310547 159.52318359 -13.00371094 159.48386719 -11.68554688 159.44335938 C-9.86313477 159.38051758 -9.86313477 159.38051758 -8.00390625 159.31640625 C-6.87799072 159.27974854 -5.7520752 159.24309082 -4.59204102 159.20532227 C-2.07146559 159.28781955 -2.07146559 159.28781955 -1 158 C-0.87481177 155.23143133 -0.81391795 152.48658874 -0.79467773 149.71655273 C-0.78477814 148.84833893 -0.77487854 147.98012512 -0.76467896 147.08560181 C-0.73296632 144.20162733 -0.70826812 141.31763635 -0.68359375 138.43359375 C-0.66303264 136.43961649 -0.6420364 134.44564368 -0.62062073 132.45167542 C-0.56531293 127.19259224 -0.5159422 121.93346917 -0.46777344 116.67431641 C-0.40881086 110.37007513 -0.34253518 104.06590709 -0.27747345 97.76172638 C-0.17935445 88.17452881 -0.09057335 78.58728521 0 69 C-14.19 69 -28.38 69 -43 69 C-43 59.76 -43 50.52 -43 41 C-28.81 41 -14.62 41 0 41 C0 27.47 0 13.94 0 0 Z " fill="#DFDFDF" transform="translate(685,262)"/>
<path d="M0 0 C9.24 0 18.48 0 28 0 C28 4.62 28 9.24 28 14 C37.9 14 47.8 14 58 14 C58 22.58 58 31.16 58 40 C48.1 40 38.2 40 28 40 C28 44.95 28 49.9 28 55 C29.36511719 54.79503906 30.73023438 54.59007812 32.13671875 54.37890625 C42.08364407 52.90808041 51.95200851 51.5406155 62 51 C62.6331684 60.01134307 63.1723784 68.95971078 63 78 C59.34891108 79.21702964 55.72958365 79.58272424 51.92578125 80.015625 C51.10575623 80.11174576 50.2857312 80.20786652 49.44085693 80.30690002 C46.73172621 80.62409273 44.02212766 80.9370831 41.3125 81.25 C37.49454539 81.69452366 33.67688914 82.14155396 29.859375 82.58984375 C28.88174698 82.70450485 27.90411896 82.81916595 26.89686584 82.93730164 C20.16027629 83.7322038 13.4305231 84.57234725 6.703125 85.44140625 C5.80172287 85.55719025 4.90032074 85.67297424 3.97160339 85.79226685 C-1.24989947 86.46327428 -1.24989947 86.46327428 -6.46957397 87.14831543 C-15.32918133 88.32283522 -24.03789265 89.38911975 -33 89 C-35.2568861 79.58171873 -36.18202938 70.68800801 -36 61 C-23.99823956 59.53879276 -12.07859208 58.57517105 0 58 C0 52.06 0 46.12 0 40 C-9.9 40 -19.8 40 -30 40 C-30 31.42 -30 22.84 -30 14 C-20.1 14 -10.2 14 0 14 C0 9.38 0 4.76 0 0 Z " fill="#DFDFDF" transform="translate(578,353)"/>
<path d="M0 0 C9.24 0 18.48 0 28 0 C28 6.93 28 13.86 28 21 C37.24 21 46.48 21 56 21 C56 29.58 56 38.16 56 47 C46.76 47 37.52 47 28 47 C28 51.95 28 56.9 28 62 C38.56 62 49.12 62 60 62 C60 70.58 60 79.16 60 88 C29.31 88 -1.38 88 -33 88 C-33 79.42 -33 70.84 -33 62 C-22.11 62 -11.22 62 0 62 C0 57.05 0 52.1 0 47 C-9.24 47 -18.48 47 -28 47 C-28 38.42 -28 29.84 -28 21 C-18.76 21 -9.52 21 0 21 C0 14.07 0 7.14 0 0 Z " fill="#DFDFDF" transform="translate(578,260)"/>
<path d="M0 0 C4.71380653 10.23738708 9.32543699 20.51843259 13.625 30.9375 C13.97949219 31.77055664 14.33398438 32.60361328 14.69921875 33.46191406 C15.01761719 34.24663086 15.33601562 35.03134766 15.6640625 35.83984375 C16.08872803 36.86646118 16.08872803 36.86646118 16.52197266 37.91381836 C17.15601939 40.68089158 16.9843899 42.33398935 16 45 C13.91455078 46.39379883 13.91455078 46.39379883 11.1953125 47.45703125 C10.21949219 47.84697266 9.24367188 48.23691406 8.23828125 48.63867188 C7.21089844 49.02603516 6.18351563 49.41339844 5.125 49.8125 C3.59552734 50.42254883 3.59552734 50.42254883 2.03515625 51.04492188 C-5.50401786 54 -5.50401786 54 -9 54 C-9.31227539 53.08299316 -9.62455078 52.16598633 -9.94628906 51.22119141 C-11.12153103 47.77236491 -12.30026505 44.32473999 -13.47998047 40.87744141 C-13.98709746 39.39403577 -14.49330575 37.91031912 -14.99853516 36.42626953 C-15.73092409 34.27551153 -16.46625127 32.12578782 -17.203125 29.9765625 C-17.44140015 29.27936096 -17.67967529 28.58215942 -17.9251709 27.86383057 C-19.5548802 23.14585999 -21.36649401 18.54418243 -23.42480469 13.99365234 C-24.14187209 11.50826508 -24.11143964 10.34273743 -23 8 C-20.99047852 6.81152344 -20.99047852 6.81152344 -18.37890625 5.859375 C-17.44369141 5.51132812 -16.50847656 5.16328125 -15.54492188 4.8046875 C-14.56072266 4.45664062 -13.57652344 4.10859375 -12.5625 3.75 C-11.09200195 3.20472656 -11.09200195 3.20472656 -9.59179688 2.6484375 C-2.35837641 0 -2.35837641 0 0 0 Z " fill="#DEDEDE" transform="translate(665,342)"/>
<path d="M0 0 C5.61 0 11.22 0 17 0 C17 24.75 17 49.5 17 75 C11.39 75 5.78 75 0 75 C0 50.25 0 25.5 0 0 Z " fill="#414141" transform="translate(873,338)"/>
<path d="M0 0 C5.28 0 10.56 0 16 0 C16 24.75 16 49.5 16 75 C10.72 75 5.44 75 0 75 C0 50.25 0 25.5 0 0 Z " fill="#424242" transform="translate(781,338)"/>
<path d="M0 0 C4.8930704 2.17980768 7.76664525 4.94049191 10.828125 9.30078125 C12.49887665 14.31303619 12.89344018 19.60535017 10.921875 24.59375 C7.74825617 30.01534884 3.85742815 33.29101353 -2.171875 35.30078125 C-8.53244711 35.83981278 -12.86299291 34.9344161 -18.171875 31.30078125 C-22.34495123 27.01788722 -24.23280652 22.92177922 -24.609375 16.98828125 C-24.46071786 11.73281397 -22.65226781 8.18665671 -19.171875 4.30078125 C-13.41534991 -0.85506296 -7.41370918 -2.38678767 0 0 Z " fill="#DEDEDE" transform="translate(1109.171875,337.69921875)"/>
<path d="M0 0 C4.51255171 3.97561518 6.76328852 8.44351598 7.3125 14.375 C6.84165626 19.83678741 5.21089278 23.5600194 1.6875 27.75 C-3.19569493 31.83825622 -7.3381995 33.66310305 -13.6953125 33.40625 C-19.47993725 32.38658733 -23.61897108 28.99465521 -27 24.3125 C-29.61498532 19.63909718 -29.79971797 15.22892522 -29 10 C-27.04216135 4.5386606 -23.76168166 0.56744094 -18.6875 -2.3125 C-12.10817412 -3.99558336 -5.89993182 -3.38582811 0 0 Z " fill="#DEDEDE" transform="translate(981,340)"/>
<path d="M0 0 C4.10488479 2.82780952 7.56757505 6.44765011 9.8125 10.9375 C10.34029267 17.1492137 10.55653643 22.695849 6.8125 27.9375 C2.6360085 32.12569036 -1.52841269 35.21824165 -7.5625 35.25 C-12.65743594 35.09990369 -16.15156538 33.95909705 -19.8515625 30.28515625 C-24.66342 24.89177095 -25.55021197 20.85954315 -25.46484375 13.66015625 C-24.92829199 8.39288054 -21.91819435 5.46414615 -18.125 2.125 C-12.59557588 -1.99265626 -6.43145334 -2.14381778 0 0 Z " fill="#DFDFDF" transform="translate(1044.1875,338.0625)"/>
<path d="M0 0 C27.39 0 54.78 0 83 0 C83 1.98 83 3.96 83 6 C55.61 6 28.22 6 0 6 C0 4.02 0 2.04 0 0 Z " fill="#474747" transform="translate(195,417)"/>
<path d="M0 0 C27.39 0 54.78 0 83 0 C83 1.98 83 3.96 83 6 C55.61 6 28.22 6 0 6 C0 4.02 0 2.04 0 0 Z " fill="#414141" transform="translate(195,392)"/>
<path d="M0 0 C7.92 0 15.84 0 24 0 C24 3.63 24 7.26 24 11 C16.08 11 8.16 11 0 11 C0 7.37 0 3.74 0 0 Z " fill="#434343" transform="translate(823,370)"/>
<path d="M0 0 C7.92 0 15.84 0 24 0 C24 3.3 24 6.6 24 10 C16.08 10 8.16 10 0 10 C0 6.7 0 3.4 0 0 Z " fill="#3F3F3F" transform="translate(823,403)"/>
<path d="M0 0 C7.92 0 15.84 0 24 0 C24 3.3 24 6.6 24 10 C16.08 10 8.16 10 0 10 C0 6.7 0 3.4 0 0 Z " fill="#474747" transform="translate(823,338)"/>
<path d="M0 0 C0.33 0 0.66 0 1 0 C1.495 8.415 1.495 8.415 2 17 C2.99 16.67 3.98 16.34 5 16 C4.96129079 25.48375596 2.02174448 32.57524475 -2 41 C-2.33 41 -2.66 41 -3 41 C-3 36.05 -3 31.1 -3 26 C-5.31 26.33 -7.62 26.66 -10 27 C-12.64511313 27.06515057 -15.29168825 27.08591426 -17.9375 27.0625 C-18.62134766 27.05798828 -19.30519531 27.05347656 -20.00976562 27.04882812 C-21.67321604 27.0371956 -23.3366205 27.01926694 -25 27 C-25 25.35 -25 23.7 -25 22 C-16.75 22 -8.5 22 0 22 C0 14.74 0 7.48 0 0 Z " fill="#494949" transform="translate(242,305)"/>
<path d="M0 0 C0.99033234 0.04178375 0.99033234 0.04178375 2.00067139 0.08441162 C4.10085341 0.17748088 6.19823214 0.29924578 8.296875 0.421875 C9.72386863 0.49018164 11.15095354 0.55660917 12.578125 0.62109375 C16.06902961 0.78292925 19.55800132 0.97052077 23.046875 1.171875 C23.046875 1.501875 23.046875 1.831875 23.046875 2.171875 C14.466875 2.171875 5.886875 2.171875 -2.953125 2.171875 C-2.953125 5.471875 -2.953125 8.771875 -2.953125 12.171875 C-7.573125 12.171875 -12.193125 12.171875 -16.953125 12.171875 C-12.65625 6.3125 -12.65625 6.3125 -10.953125 4.171875 C-10.40140625 3.47126953 -9.8496875 2.77066406 -9.28125 2.04882812 C-6.06572413 -0.54355473 -4.08171406 -0.20754478 0 0 Z " fill="#505050" transform="translate(193.953125,292.828125)"/>
<path d="M0 0 C6.27 0 12.54 0 19 0 C18.67 1.32 18.34 2.64 18 4 C14.38132441 5.2062252 11.07493749 5.10816918 7.3125 5.0625 C6.61060547 5.05798828 5.90871094 5.05347656 5.18554688 5.04882812 C3.45699462 5.03706927 1.72848635 5.01913454 0 5 C0 3.35 0 1.7 0 0 Z " fill="#414141" transform="translate(217,327)"/>
</svg>
